<svg width="64" height="57" viewBox="0 0 64 57" fill="none" xmlns="http://www.w3.org/2000/svg">
<path fill-rule="evenodd" clip-rule="evenodd" d="M2.74488 2C7.79145 2.3891 10.7029 4.33458 11.4793 7.83646C15.7495 4.14004 19.3403 4.62641 23.9987 6.08552C21.8636 11.7274 20.7961 13.9647 11.7705 14.8402C11.5764 17.953 13.1292 20.9685 17.0112 20.9685C22.8341 20.9685 29.2394 10.4629 45.8348 11.3383C62.4303 12.2138 66.5064 27.6804 56.8985 37.3106C47.2906 46.9407 30.6951 47.5244 20.2138 42.8552C9.73244 38.1861 3.32717 28.2641 8.2767 14.2566C0.706837 11.0465 1.6293 6.659 2.74488 2Z" fill="#CFE7FF" stroke="#1F4770" stroke-width="2.98537"/>
<path fill-rule="evenodd" clip-rule="evenodd" d="M61.2982 29.6743C61.2982 29.6743 56.6373 31.4221 51.9763 31.4221C47.3154 31.4221 41.7805 29.9656 36.537 30.8395C31.2934 31.7134 28.6717 41.6179 24.302 47.7354C19.9324 53.8528 15.5628 56.4746 12.3584 54.4355C9.154 52.3963 12.941 41.6179 24.302 37.5396" fill="#CFE7FF"/>
<path d="M61.2982 29.6743C61.2982 29.6743 56.6373 31.4221 51.9763 31.4221C47.3154 31.4221 41.7805 29.9656 36.537 30.8395C31.2934 31.7134 28.6717 41.6179 24.302 47.7354C19.9324 53.8528 15.5628 56.4746 12.3584 54.4355C9.154 52.3963 12.941 41.6179 24.302 37.5396" stroke="#1F4770" stroke-width="2.98537" stroke-linecap="round"/>
<path fill-rule="evenodd" clip-rule="evenodd" d="M61.2982 29.6743C61.2982 29.6743 61.3478 29.7202 61.4406 29.8081C60.6763 32.4329 59.1769 35 56.9286 37.2483C48.9901 45.1867 36.284 46.967 26.1923 44.7216C29.5313 38.8098 32.0922 31.5803 36.537 30.8395C41.7805 29.9656 47.3154 31.4221 51.9763 31.4221C56.6373 31.4221 61.2982 29.6743 61.2982 29.6743Z" fill="white" stroke="#1F4770" stroke-width="2.98537"/>
<path d="M38.4307 26.7612C39.6373 26.7612 40.6155 25.7831 40.6155 24.5764C40.6155 23.3698 39.6373 22.3916 38.4307 22.3916C37.224 22.3916 36.2458 23.3698 36.2458 24.5764C36.2458 25.7831 37.224 26.7612 38.4307 26.7612Z" fill="#1F4770"/>
</svg>
